<mxfile host="app.diagrams.net" modified="2020-12-02T17:02:08.080Z" agent="5.0 (Macintosh; Intel Mac OS X 10_15_6) AppleWebKit/605.1.15 (KHTML, like Gecko) Version/14.0.1 Safari/605.1.15" etag="AkjbuS2vOgS40HFsIpdN" version="13.10.4" type="github">
  <diagram id="KaexqXeGwiMuKF7mzq42" name="Page-1">
    <mxGraphModel dx="946" dy="645" grid="1" gridSize="10" guides="1" tooltips="1" connect="1" arrows="1" fold="1" page="1" pageScale="1" pageWidth="827" pageHeight="1169" math="0" shadow="0">
      <root>
        <mxCell id="0" />
        <mxCell id="1" parent="0" />
        <mxCell id="2oJo6NesX2OGAvK4LQgh-1" value="initial data" style="ellipse;whiteSpace=wrap;html=1;aspect=fixed;fillColor=#dae8fc;strokeColor=#6c8ebf;" parent="1" vertex="1">
          <mxGeometry x="354" y="170" width="60" height="60" as="geometry" />
        </mxCell>
        <mxCell id="2oJo6NesX2OGAvK4LQgh-8" value="Original" style="whiteSpace=wrap;html=1;shape=mxgraph.basic.document;fillColor=#f8cecc;strokeColor=#b85450;" parent="1" vertex="1">
          <mxGeometry x="450" y="175" width="60" height="50" as="geometry" />
        </mxCell>
        <mxCell id="2oJo6NesX2OGAvK4LQgh-9" value="" style="endArrow=open;html=1;exitX=1;exitY=0.5;exitDx=0;exitDy=0;entryX=0;entryY=0.5;entryDx=0;entryDy=0;entryPerimeter=0;dashed=1;endFill=0;" parent="1" source="2oJo6NesX2OGAvK4LQgh-1" target="2oJo6NesX2OGAvK4LQgh-8" edge="1">
          <mxGeometry width="50" height="50" relative="1" as="geometry">
            <mxPoint x="217.32233047033628" y="147.67766952966372" as="sourcePoint" />
            <mxPoint x="190" y="180" as="targetPoint" />
          </mxGeometry>
        </mxCell>
        <mxCell id="2oJo6NesX2OGAvK4LQgh-67" style="edgeStyle=orthogonalEdgeStyle;rounded=0;orthogonalLoop=1;jettySize=auto;html=1;entryX=0;entryY=0.5;entryDx=0;entryDy=0;entryPerimeter=0;dashed=1;endArrow=open;endFill=0;" parent="1" source="2oJo6NesX2OGAvK4LQgh-10" target="2oJo6NesX2OGAvK4LQgh-12" edge="1">
          <mxGeometry relative="1" as="geometry" />
        </mxCell>
        <mxCell id="2oJo6NesX2OGAvK4LQgh-10" value="after FS&amp;nbsp;" style="ellipse;whiteSpace=wrap;html=1;aspect=fixed;fillColor=#dae8fc;strokeColor=#6c8ebf;" parent="1" vertex="1">
          <mxGeometry x="660" y="60" width="60" height="60" as="geometry" />
        </mxCell>
        <mxCell id="2oJo6NesX2OGAvK4LQgh-11" value="" style="endArrow=classic;html=1;entryX=0;entryY=0.5;entryDx=0;entryDy=0;exitX=1;exitY=0.5;exitDx=0;exitDy=0;" parent="1" source="2oJo6NesX2OGAvK4LQgh-55" target="2oJo6NesX2OGAvK4LQgh-10" edge="1">
          <mxGeometry x="1" y="-332" width="50" height="50" relative="1" as="geometry">
            <mxPoint x="960" y="190" as="sourcePoint" />
            <mxPoint x="590" y="150" as="targetPoint" />
            <mxPoint x="58" y="75" as="offset" />
          </mxGeometry>
        </mxCell>
        <mxCell id="2oJo6NesX2OGAvK4LQgh-39" value="Feature Selection" style="edgeLabel;html=1;align=center;verticalAlign=middle;resizable=0;points=[];" parent="2oJo6NesX2OGAvK4LQgh-11" vertex="1" connectable="0">
          <mxGeometry x="0.1684" y="2" relative="1" as="geometry">
            <mxPoint x="-29.51999999999999" y="-29.309999999999995" as="offset" />
          </mxGeometry>
        </mxCell>
        <mxCell id="2oJo6NesX2OGAvK4LQgh-12" value="Feature Selection" style="whiteSpace=wrap;html=1;shape=mxgraph.basic.document;fillColor=#f8cecc;strokeColor=#b85450;" parent="1" vertex="1">
          <mxGeometry x="750" y="65" width="60" height="50" as="geometry" />
        </mxCell>
        <mxCell id="6b62Ja6Kuc7OPIPla02d-2" style="edgeStyle=none;rounded=0;orthogonalLoop=1;jettySize=auto;html=1;endArrow=classic;endFill=1;dashed=1;exitX=0.5;exitY=0;exitDx=0;exitDy=0;exitPerimeter=0;" parent="1" source="2oJo6NesX2OGAvK4LQgh-8" edge="1">
          <mxGeometry relative="1" as="geometry">
            <mxPoint x="560" y="140" as="targetPoint" />
            <mxPoint x="300" y="140" as="sourcePoint" />
            <Array as="points">
              <mxPoint x="480" y="140" />
            </Array>
          </mxGeometry>
        </mxCell>
        <mxCell id="2oJo6NesX2OGAvK4LQgh-73" style="edgeStyle=orthogonalEdgeStyle;rounded=0;orthogonalLoop=1;jettySize=auto;html=1;dashed=1;endArrow=open;endFill=0;" parent="1" source="2oJo6NesX2OGAvK4LQgh-48" target="2oJo6NesX2OGAvK4LQgh-72" edge="1">
          <mxGeometry relative="1" as="geometry" />
        </mxCell>
        <mxCell id="2oJo6NesX2OGAvK4LQgh-48" value="after Extraction" style="ellipse;whiteSpace=wrap;html=1;aspect=fixed;fillColor=#dae8fc;strokeColor=#6c8ebf;" parent="1" vertex="1">
          <mxGeometry x="660" y="170" width="60" height="60" as="geometry" />
        </mxCell>
        <mxCell id="2oJo6NesX2OGAvK4LQgh-64" style="edgeStyle=orthogonalEdgeStyle;rounded=0;orthogonalLoop=1;jettySize=auto;html=1;entryX=0;entryY=0.5;entryDx=0;entryDy=0;entryPerimeter=0;dashed=1;endArrow=open;endFill=0;" parent="1" source="2oJo6NesX2OGAvK4LQgh-51" target="2oJo6NesX2OGAvK4LQgh-63" edge="1">
          <mxGeometry relative="1" as="geometry" />
        </mxCell>
        <mxCell id="2oJo6NesX2OGAvK4LQgh-51" value="Balanced" style="ellipse;whiteSpace=wrap;html=1;aspect=fixed;fillColor=#dae8fc;strokeColor=#6c8ebf;" parent="1" vertex="1">
          <mxGeometry x="354" y="60" width="60" height="60" as="geometry" />
        </mxCell>
        <mxCell id="2oJo6NesX2OGAvK4LQgh-55" value="" style="triangle;whiteSpace=wrap;html=1;fillColor=#fff2cc;strokeColor=#d6b656;" parent="1" vertex="1">
          <mxGeometry x="560" y="120" width="30" height="40" as="geometry" />
        </mxCell>
        <mxCell id="2oJo6NesX2OGAvK4LQgh-61" style="rounded=0;orthogonalLoop=1;jettySize=auto;html=1;endArrow=classic;endFill=1;exitX=0.5;exitY=0;exitDx=0;exitDy=0;entryX=0.5;entryY=1;entryDx=0;entryDy=0;" parent="1" source="2oJo6NesX2OGAvK4LQgh-1" target="2oJo6NesX2OGAvK4LQgh-51" edge="1">
          <mxGeometry relative="1" as="geometry">
            <mxPoint x="360" y="150" as="sourcePoint" />
            <mxPoint x="300" y="120" as="targetPoint" />
            <Array as="points" />
          </mxGeometry>
        </mxCell>
        <mxCell id="2oJo6NesX2OGAvK4LQgh-74" value="Balancing" style="edgeLabel;html=1;align=center;verticalAlign=middle;resizable=0;points=[];" parent="2oJo6NesX2OGAvK4LQgh-61" vertex="1" connectable="0">
          <mxGeometry x="0.2309" y="-3" relative="1" as="geometry">
            <mxPoint x="26.999999999999993" y="7" as="offset" />
          </mxGeometry>
        </mxCell>
        <mxCell id="2oJo6NesX2OGAvK4LQgh-65" style="edgeStyle=orthogonalEdgeStyle;rounded=0;orthogonalLoop=1;jettySize=auto;html=1;entryX=0;entryY=0.5;entryDx=0;entryDy=0;dashed=1;endArrow=classic;endFill=1;" parent="1" source="2oJo6NesX2OGAvK4LQgh-63" target="2oJo6NesX2OGAvK4LQgh-55" edge="1">
          <mxGeometry relative="1" as="geometry">
            <Array as="points">
              <mxPoint x="480" y="140" />
            </Array>
          </mxGeometry>
        </mxCell>
        <mxCell id="2oJo6NesX2OGAvK4LQgh-63" value="Balanced" style="whiteSpace=wrap;html=1;shape=mxgraph.basic.document;fillColor=#f8cecc;strokeColor=#b85450;" parent="1" vertex="1">
          <mxGeometry x="450" y="65" width="60" height="50" as="geometry" />
        </mxCell>
        <mxCell id="2oJo6NesX2OGAvK4LQgh-66" value="&lt;span style=&quot;font-size: 10px&quot;&gt;Apply algorithm and&lt;/span&gt;&lt;br style=&quot;font-size: 10px&quot;&gt;&lt;span style=&quot;font-size: 10px&quot;&gt;choose the one with&amp;nbsp;&lt;/span&gt;&lt;br style=&quot;font-size: 10px&quot;&gt;&lt;span style=&quot;font-size: 10px&quot;&gt;best performance&lt;/span&gt;" style="text;html=1;align=center;verticalAlign=middle;resizable=0;points=[];autosize=1;" parent="1" vertex="1">
          <mxGeometry x="510" y="160" width="110" height="50" as="geometry" />
        </mxCell>
        <mxCell id="2oJo6NesX2OGAvK4LQgh-69" value="" style="endArrow=classic;html=1;entryX=0;entryY=0.5;entryDx=0;entryDy=0;exitX=1;exitY=0.5;exitDx=0;exitDy=0;" parent="1" source="2oJo6NesX2OGAvK4LQgh-55" target="2oJo6NesX2OGAvK4LQgh-48" edge="1">
          <mxGeometry x="1" y="-332" width="50" height="50" relative="1" as="geometry">
            <mxPoint x="540" y="350" as="sourcePoint" />
            <mxPoint x="660" y="380" as="targetPoint" />
            <mxPoint x="58" y="75" as="offset" />
            <Array as="points" />
          </mxGeometry>
        </mxCell>
        <mxCell id="2oJo6NesX2OGAvK4LQgh-70" value="Feature Extraction" style="edgeLabel;html=1;align=center;verticalAlign=middle;resizable=0;points=[];" parent="2oJo6NesX2OGAvK4LQgh-69" vertex="1" connectable="0">
          <mxGeometry x="0.1684" y="2" relative="1" as="geometry">
            <mxPoint x="27.700000000000003" y="-23.61999999999999" as="offset" />
          </mxGeometry>
        </mxCell>
        <mxCell id="2oJo6NesX2OGAvK4LQgh-72" value="Feature Extraction" style="whiteSpace=wrap;html=1;shape=mxgraph.basic.document;fillColor=#f8cecc;strokeColor=#b85450;" parent="1" vertex="1">
          <mxGeometry x="750" y="175" width="60" height="50" as="geometry" />
        </mxCell>
        <mxCell id="7juf6DKPCH_WAZhTGRtL-2" value="DATASET 2" style="text;html=1;align=center;verticalAlign=middle;resizable=0;points=[];autosize=1;fontStyle=1;fillColor=#60a917;strokeColor=#2D7600;fontColor=#ffffff;fontSize=18;" vertex="1" parent="1">
          <mxGeometry x="260" y="10" width="110" height="30" as="geometry" />
        </mxCell>
      </root>
    </mxGraphModel>
  </diagram>
</mxfile>
